<svg xmlns="http://www.w3.org/2000/svg"><g>
<rect x="394.0" y="300.0" width="16.0" height="10.0" fill="Blue" stroke="black" />
<rect x="415.0" y="267.5" width="16.0" height="42.5" fill="Green" stroke="black" />
<rect x="436.0" y="210.0" width="16.0" height="100.0" fill="Red" stroke="black" />
<rect x="457.0" y="283.125" width="16.0" height="26.875" fill="Yellow" stroke="black" />
<rect x="478.0" y="308.125" width="16.0" height="1.875" fill="Maroon" stroke="black" />
</g>
<g>
<rect x="544.0" y="299.1428571428571" width="16.0" height="10.857142857142858" fill="Blue" stroke="black" />
<rect x="565.0" y="272.2857142857143" width="16.0" height="37.714285714285715" fill="Green" stroke="black" />
<rect x="586.0" y="210.0" width="16.0" height="100.0" fill="Red" stroke="black" />
<rect x="607.0" y="288.2857142857143" width="16.0" height="21.714285714285715" fill="Yellow" stroke="black" />
<rect x="628.0" y="308.1142857142857" width="16.0" height="1.8857142857142857" fill="Maroon" stroke="black" />
</g>
<g>
<rect x="694.0" y="298.2022471910112" width="16.0" height="11.797752808988763" fill="Blue" stroke="black" />
<rect x="715.0" y="275.1685393258427" width="16.0" height="34.831460674157306" fill="Green" stroke="black" />
<rect x="736.0" y="210.0" width="16.0" height="100.0" fill="Red" stroke="black" />
<rect x="757.0" y="289.7752808988764" width="16.0" height="20.224719101123593" fill="Yellow" stroke="black" />
<rect x="778.0" y="308.08988764044943" width="16.0" height="1.9101123595505618" fill="Maroon" stroke="black" />
</g>
<text x="444.0" y="340.0" font-size="15.0" text-anchor="middle" fill="Black" stroke="Black">2010</text>
<text x="594.0" y="339.0" font-size="15.0" text-anchor="middle" fill="Black" stroke="Black">2015</text>
<text x="744.0" y="339.0" font-size="15.0" text-anchor="middle" fill="Black" stroke="Black">2020</text>
<rect x="334.0" y="345.0" width="20.0" height="10.0" fill="White" stroke="black" />
<text x="359.0" y="355">Afrique</text><rect x="434.0" y="345.0" width="20.0" height="10.0" fill="White" stroke="black" />
<text x="459.0" y="355">Amerique</text><rect x="534.0" y="345.0" width="20.0" height="10.0" fill="White" stroke="black" />
<text x="559.0" y="355">Asie</text><rect x="634.0" y="345.0" width="20.0" height="10.0" fill="White" stroke="black" />
<text x="659.0" y="355">Europe</text><rect x="734.0" y="345.0" width="20.0" height="10.0" fill="White" stroke="black" />
<text x="759.0" y="355">Oceanie</text><rect x="334.0" y="345.0" width="20.0" height="10.0" fill="Blue" stroke="black" />
<rect x="434.0" y="345.0" width="20.0" height="10.0" fill="Green" stroke="black" />
<rect x="534.0" y="345.0" width="20.0" height="10.0" fill="Red" stroke="black" />
<rect x="634.0" y="345.0" width="20.0" height="10.0" fill="Yellow" stroke="black" />
<rect x="734.0" y="345.0" width="20.0" height="10.0" fill="Maroon" stroke="black" />
<text x="636.0" y="205.0" font-size="20.0" text-anchor="middle" fill="Black" stroke="Black">Emissions de CO2 (en Mt)</text>
</svg>