<svg xmlns="http://www.w3.org/2000/svg"><g>
<rect x="294.0" y="290.0" width="16.0" height="20.0" fill="Blue" stroke="black" />
<rect x="315.0" y="225.0" width="16.0" height="85.0" fill="Green" stroke="black" />
<rect x="336.0" y="110.0" width="16.0" height="200.0" fill="Red" stroke="black" />
<rect x="357.0" y="256.25" width="16.0" height="53.75" fill="Yellow" stroke="black" />
<rect x="378.0" y="306.25" width="16.0" height="3.75" fill="Maroon" stroke="black" />
</g>
<text x="344.0" y="335.0" font-size="15.0" text-anchor="middle" fill="Black" stroke="Black">2010</text>
<rect x="244.0" y="345.0" width="20.0" height="10.0" fill="White" stroke="black" />
<text x="269" y="355">Afrique</text><rect x="334.0" y="345.0" width="20.0" height="10.0" fill="White" stroke="black" />
<text x="359" y="355">Amerique</text><rect x="434.0" y="345.0" width="20.0" height="10.0" fill="White" stroke="black" />
<text x="459" y="355">Asie</text><rect x="494.0" y="345.0" width="20.0" height="10.0" fill="White" stroke="black" />
<text x="519" y="355">Europe</text><rect x="574.0" y="345.0" width="20.0" height="10.0" fill="White" stroke="black" />
<text x="599" y="355">Oceanie</text><rect x="244.0" y="345.0" width="20.0" height="10.0" fill="Blue" stroke="black" />
<rect x="334.0" y="345.0" width="20.0" height="10.0" fill="Green" stroke="black" />
<rect x="434.0" y="345.0" width="20.0" height="10.0" fill="Red" stroke="black" />
<rect x="494.0" y="345.0" width="20.0" height="10.0" fill="Yellow" stroke="black" />
<rect x="574.0" y="345.0" width="20.0" height="10.0" fill="Maroon" stroke="black" />
<polyline points="294.0 400.0 394.0 400.0 " fill="White" stroke="black" />
<polyline points="294.0 400.0 294.0 200.0 " fill="White" stroke="black" />
<text x="274.0" y="404.0" font-size="10.0" text-anchor="middle" fill="Black" stroke="Black">0</text>
<polyline points="291.0 400.0 297.0 400.0 " fill="White" stroke="black" />
<text x="274.0" y="364.0" font-size="10.0" text-anchor="middle" fill="Black" stroke="Black">3200</text>
<polyline points="291.0 360.0 297.0 360.0 " fill="White" stroke="black" />
<text x="274.0" y="324.0" font-size="10.0" text-anchor="middle" fill="Black" stroke="Black">6400</text>
<polyline points="291.0 320.0 297.0 320.0 " fill="White" stroke="black" />
<text x="274.0" y="284.0" font-size="10.0" text-anchor="middle" fill="Black" stroke="Black">9600</text>
<polyline points="291.0 280.0 297.0 280.0 " fill="White" stroke="black" />
<text x="274.0" y="244.0" font-size="10.0" text-anchor="middle" fill="Black" stroke="Black">12800</text>
<polyline points="291.0 240.0 297.0 240.0 " fill="White" stroke="black" />
<text x="274.0" y="204.0" font-size="10.0" text-anchor="middle" fill="Black" stroke="Black">16000</text>
<polyline points="291.0 200.0 297.0 200.0 " fill="White" stroke="black" />
</svg>