<svg xmlns="http://www.w3.org/2000/svg"><g>
<rect x="394.0" y="290.0" width="16.0" height="20.0" fill="Blue" stroke="black" />
<rect x="415.0" y="225.0" width="16.0" height="85.0" fill="Green" stroke="black" />
<rect x="436.0" y="110.0" width="16.0" height="200.0" fill="Red" stroke="black" />
<rect x="457.0" y="256.25" width="16.0" height="53.75" fill="Yellow" stroke="black" />
<rect x="478.0" y="306.25" width="16.0" height="3.75" fill="Maroon" stroke="black" />
</g>
<g>
<rect x="544.0" y="288.2857142857143" width="16.0" height="21.714285714285715" fill="Blue" stroke="black" />
<rect x="565.0" y="234.57142857142856" width="16.0" height="75.42857142857143" fill="Green" stroke="black" />
<rect x="586.0" y="110.0" width="16.0" height="200.0" fill="Red" stroke="black" />
<rect x="607.0" y="266.57142857142856" width="16.0" height="43.42857142857143" fill="Yellow" stroke="black" />
<rect x="628.0" y="306.22857142857146" width="16.0" height="3.7714285714285714" fill="Maroon" stroke="black" />
</g>
<text x="444.0" y="335.0" font-size="15.0" text-anchor="middle" fill="Black" stroke="Black">2010</text>
<text x="594.0" y="334.0" font-size="15.0" text-anchor="middle" fill="Black" stroke="Black">2015</text>
<rect x="344.0" y="345.0" width="20.0" height="10.0" fill="White" stroke="black" />
<text x="369" y="355">Afrique</text><rect x="434.0" y="345.0" width="20.0" height="10.0" fill="White" stroke="black" />
<text x="459" y="355">Amerique</text><rect x="534.0" y="345.0" width="20.0" height="10.0" fill="White" stroke="black" />
<text x="559" y="355">Asie</text><rect x="594.0" y="345.0" width="20.0" height="10.0" fill="White" stroke="black" />
<text x="619" y="355">Europe</text><rect x="674.0" y="345.0" width="20.0" height="10.0" fill="White" stroke="black" />
<text x="699" y="355">Oceanie</text><rect x="344.0" y="345.0" width="20.0" height="10.0" fill="Blue" stroke="black" />
<rect x="434.0" y="345.0" width="20.0" height="10.0" fill="Green" stroke="black" />
<rect x="534.0" y="345.0" width="20.0" height="10.0" fill="Red" stroke="black" />
<rect x="594.0" y="345.0" width="20.0" height="10.0" fill="Yellow" stroke="black" />
<rect x="674.0" y="345.0" width="20.0" height="10.0" fill="Maroon" stroke="black" />
<text x="504.0" y="100.0" font-size="20.0" text-anchor="middle" fill="Black" stroke="Black">Emissions de CO2 (en Mt)</text>
<polyline points="394.0 310.0 644.0 310.0 " fill="White" stroke="black" />
<polyline points="394.0 310.0 394.0 110.0 " fill="White" stroke="black" />
<text x="374.0" y="314.0" font-size="10.0" text-anchor="middle" fill="Black" stroke="Black">0</text>
<polyline points="391.0 310.0 397.0 310.0 " fill="White" stroke="black" />
<text x="374.0" y="274.0" font-size="10.0" text-anchor="middle" fill="Black" stroke="Black">3500</text>
<polyline points="391.0 270.0 397.0 270.0 " fill="White" stroke="black" />
<text x="374.0" y="234.0" font-size="10.0" text-anchor="middle" fill="Black" stroke="Black">7000</text>
<polyline points="391.0 230.0 397.0 230.0 " fill="White" stroke="black" />
<text x="374.0" y="194.0" font-size="10.0" text-anchor="middle" fill="Black" stroke="Black">10500</text>
<polyline points="391.0 190.0 397.0 190.0 " fill="White" stroke="black" />
<text x="374.0" y="154.0" font-size="10.0" text-anchor="middle" fill="Black" stroke="Black">14000</text>
<polyline points="391.0 150.0 397.0 150.0 " fill="White" stroke="black" />
<text x="374.0" y="114.0" font-size="10.0" text-anchor="middle" fill="Black" stroke="Black">17500</text>
<polyline points="391.0 110.0 397.0 110.0 " fill="White" stroke="black" />
</svg>