<svg xmlns="http://www.w3.org/2000/svg"><svg xmlns="http://www.w3.org/2000/svg"><g>
<path d="M250.0 250.0L250,150A100.0,100.0 0 0 1 265,151Z" fill="Blue" stroke="black"/>
<path d="M250.0 250.0L265,151A100.0,100.0 0 0 1 320,179Z" fill="Green" stroke="black"/>
<path d="M250.0 250.0L320,179A100.0,100.0 0 0 1 327,314Z" fill="Red" stroke="black"/>
<path d="M250.0 250.0L327,314A100.0,100.0 0 1 1 247,150Z" fill="Yellow" stroke="black"/>
<path d="M250.0 250.0L247,150A100.0,100.0 0 0 1 250,150Z" fill="Maroon" stroke="black"/>
</g>
</svg><text x="102" y="475" fill="black">Afrique</text>
<text x="184" y="475" fill="black">Amerique</text>
<text x="267" y="475" fill="black">Asie</text>
<text x="346" y="475" fill="black">Europe</text>
<text x="427" y="475" fill="black">Oceanie</text>
<text x="230.0" y="375.0" fill="black">2010</text>
<rect x="78" y="465" width="10" height="10" fill="Blue" />
<rect x="163" y="465" width="10" height="10" fill="Green" />
<rect x="248" y="465" width="10" height="10" fill="Red" />
<rect x="333" y="465" width="10" height="10" fill="Yellow" />
<rect x="418" y="465" width="10" height="10" fill="Maroon" />
</svg>