<svg xmlns="http://www.w3.org/2000/svg"><g>
<rect x="262.5" y="110.0" width="47.5" height="200.0" fill="Blue" stroke="black" />
<rect x="315.0" y="110.0" width="47.5" height="200.0" fill="Green" stroke="black" />
</g>
<text x="312.0" y="245.0" font-size="15.0" text-anchor="middle" fill="Black" stroke="Black"></text>
<rect x="374.0" y="345.0" width="20.0" height="10.0" fill="White" stroke="black" />
<text x="399" y="355">Aude </text><rect x="444.0" y="345.0" width="20.0" height="10.0" fill="White" stroke="black" />
<text x="469" y="355">Ariege </text><rect x="374.0" y="345.0" width="20.0" height="10.0" fill="Blue" stroke="black" />
<rect x="444.0" y="345.0" width="20.0" height="10.0" fill="Green" stroke="black" />
<polyline points="262.5 310.0 362.5 310.0 " fill="White" stroke="black" />
<polyline points="262.5 310.0 262.5 110.0 " fill="White" stroke="black" />
<text x="242.5" y="314.0" font-size="10.0" text-anchor="middle" fill="Black" stroke="Black">0</text>
<polyline points="259.5 310.0 265.5 310.0 " fill="White" stroke="black" />
<text x="242.5" y="274.0" font-size="10.0" text-anchor="middle" fill="Black" stroke="Black">0,35</text>
<polyline points="259.5 270.0 265.5 270.0 " fill="White" stroke="black" />
<text x="242.5" y="234.0" font-size="10.0" text-anchor="middle" fill="Black" stroke="Black">0,69</text>
<polyline points="259.5 230.0 265.5 230.0 " fill="White" stroke="black" />
<text x="242.5" y="194.0" font-size="10.0" text-anchor="middle" fill="Black" stroke="Black">1,04</text>
<polyline points="259.5 190.0 265.5 190.0 " fill="White" stroke="black" />
<text x="242.5" y="154.0" font-size="10.0" text-anchor="middle" fill="Black" stroke="Black">1,38</text>
<polyline points="259.5 150.0 265.5 150.0 " fill="White" stroke="black" />
<text x="242.5" y="114.0" font-size="10.0" text-anchor="middle" fill="Black" stroke="Black">1,73</text>
<polyline points="259.5 110.0 265.5 110.0 " fill="White" stroke="black" />
</svg>