<svg xmlns="http://www.w3.org/2000/svg"><svg xmlns="http://www.w3.org/2000/svg"><g>
<path d="M250.0 250.0L250,150A100.0,100.0 0 0 1 265,151Z" fill="Blue" stroke="black"/>
<path d="M250.0 250.0L265,151A100.0,100.0 0 0 1 320,179Z" fill="Green" stroke="black"/>
<path d="M250.0 250.0L320,179A100.0,100.0 0 0 1 327,314Z" fill="Red" stroke="black"/>
<path d="M250.0 250.0L327,314A100.0,100.0 0 1 1 247,150Z" fill="Yellow" stroke="black"/>
<path d="M250.0 250.0L247,150A100.0,100.0 0 0 1 250,150Z" fill="Maroon" stroke="black"/>
</g>
</svg><rect x="240.0" y="375.0" width="20.0" height="10.0" fill="White" stroke="black" />
<text x="265" y="385">Afrique</text><rect x="340.0" y="375.0" width="20.0" height="10.0" fill="White" stroke="black" />
<text x="365" y="385">Amerique</text><rect x="440.0" y="375.0" width="20.0" height="10.0" fill="White" stroke="black" />
<text x="465" y="385">Asie</text><rect x="540.0" y="375.0" width="20.0" height="10.0" fill="White" stroke="black" />
<text x="565" y="385">Europe</text><rect x="640.0" y="375.0" width="20.0" height="10.0" fill="White" stroke="black" />
<text x="665" y="385">Oceanie</text><rect x="240.0" y="375.0" width="20.0" height="10.0" fill="Blue" stroke="black" />
<rect x="340.0" y="375.0" width="20.0" height="10.0" fill="Green" stroke="black" />
<rect x="440.0" y="375.0" width="20.0" height="10.0" fill="Red" stroke="black" />
<rect x="540.0" y="375.0" width="20.0" height="10.0" fill="Yellow" stroke="black" />
<rect x="640.0" y="375.0" width="20.0" height="10.0" fill="Maroon" stroke="black" />
</svg>